<svg xmlns="http://www.w3.org/2000/svg"  viewBox="0 0 50 50" width="50px" height="50px"><path fill="none" stroke="#030000" stroke-linecap="round" stroke-linejoin="round" stroke-miterlimit="10" stroke-width="2" d="M24.972,6l2-2h11l4,4v4c0,0-1.538-0.01-2.161-1.174C39.545,10.329,39.046,10,38.482,10h0c-1.117,0-1.843,1.183-1.335,2.178 C38.892,15.59,43.972,17,43.972,17s0,5,0,8c0,12-19,23-19,23H25c0,0-19-11-19-23c0-3,0-8,0-8s5.08-1.41,6.824-4.822 C13.332,11.183,12.606,10,11.489,10h0c-0.564,0-1.063,0.329-1.329,0.826C9.538,11.99,8,12,8,12V8l4-4h11l2,2H24.972z"/><path fill="#030000" d="M15.102,19.384c0,0-0.536,1.305-0.536,2.726s0.419,2.097,0.419,2.097s-2.982,0.909-3.844-2.213 l0.629,0.21l-0.629-3.424c0,0-0.466-0.298-1.466-0.556c-1-0.257-2.494-0.069-2.682-0.673c-0.075-0.296,0-0.475,0-0.475 s-0.396-0.792-0.188-1.366c0,0-0.475-0.267-0.475-1.079s0.505-1.029,0.772-1.029c1.059,0,4.777,2.055,5.293,2.677 S13.382,19.663,15.102,19.384z"/><path fill="#030000" d="M28.027,34.575c-0.408,0.182-1.043,0.541-1.102,1.032c-0.088,0.73,0.029,3.108-0.263,3.691 l-4.538,0.657c0,0-0.808,1.196-1.415,1.196c0,0-0.306-0.321-0.35-0.832l-0.934-0.102v-0.7l-0.35-0.102c0,0-0.306-2.028,0.54-2.13 c0.846-0.102,5.18,0.992,5.18,0.992s-0.73-3.356-1.576-4.027c0,0-1.503-0.175-1.503-1.765c0-1.455,3.285-3.008,5.152-3.261 l0.592,0.412C27.459,29.635,27.445,31.638,28.027,34.575z"/><path fill="#030000" d="M33.361,16.564c0-1.57,0.212-1.975,0.429-1.975c0.508,0,0.748,1.928,0.748,1.928 c1.449,0,2.071-1.271,2.071-1.271s-0.91-2.919-1.577-2.919c-1.483,0-3.319,0.435-3.319,3.26c0,3.989,6.92,11.405,6.92,14.7 c0,4.533-10.263-7.368-11.699-7.932l-0.008-0.647c0,0,0.889,0.343,1.181-0.241c0,0-0.864-0.191-0.864-1.537 s1.761-5.989,1.761-6.903c0-0.915-1.202-2.814-1.355-3.322c0,0,1.207-0.597,1.372-1.334c-0.495-0.813-1.017-1.358-1.017-1.358 s-0.993,1.231-2.046,1.47l-1.966-0.477c0,0-4.787-0.079-4.866,0c-0.079,0.079,0.099,1.013-1.132,1.51c-1.231,0.497-2.642,0-2.642,0 l0.179,1.251l1.549,1.887c0,0,2.701-1.112,2.9,1.39h-1.847l-0.516-0.377l-0.675,0.377c0,0,0.854,0.973,0.854,1.549 c0,0,1.41-0.516,2.364-0.099c0,0-2.074,1.181-3.127,1.181s-1.019-0.95-1.019-0.95s-0.412,0.675-0.412,1.408 c0,0.733,1.019,1.019,1.019,1.019s-1.141,1.927-1.141,4.269s1.046,3.774,1.046,3.774s-5.411,0.082-6.594-0.141 c0,0-2.001,0.709-2.001,2.028S9,28.696,9,28.696s-0.273,0.614-0.273,1.341c0,0.728,0.364,0.5,0.364,0.5s-0.045,0.364,0.773,0.364 c0.818,0,3.206-2.637,4.07-2.637s3.865,2.797,5.093,2.797s3.206-3.456,3.206-3.456s4.208,0.187,6.114,1.717 c0,0,0.282,10.734,3.696,10.734c2.825-1.083,4.002-0.565,4.002-0.565s-0.118,3.131-0.541,3.484h-0.377c0,0-0.4-0.777-0.894-0.777 c-0.494,0-1.859,1.083-1.859,2.472l0.565,0.259c0,0,0,0.306,0.541,0.306s2.213-1.083,3.413-1.2l2.189-5.579 c0,0-3.366-1.059-3.366-2.519c0-1.459-0.353-4.919-0.353-4.919s1.342,1.907,3.719,1.907c1.157,0,1.836-1.166,1.836-2.214 C40.917,27.432,33.361,20.749,33.361,16.564z M20.054,10.132l-0.563-1.141l2.266-0.107L20.054,10.132z"/></svg>