<svg xmlns="http://www.w3.org/2000/svg"  viewBox="0 0 50 50" width="50px" height="50px"><path d="M34.965,22.95c0,0-1.586,4.554-1.79,5.574c0,0,2.221,0.499,3.557-0.884l-0.566-0.249c2.56-1.699,2.808-4.917,4.079-4.917 c1.323,0,2.489,0.609,2.456,1.84c0,0,1.001-0.788,0.788-2.085c0,0,0.462,0.522,0.607,1.116c0,0,0.514-0.607,0.514-1.871 l-1.597-1.149l-3.168,0.23C39.845,20.554,37.621,22.915,34.965,22.95z"/><path d="M24.002,34.821l-2.043,1.675c0,0,5.444-0.046,7.653,1.003c0,0,0.209-0.567,0.089-0.993 c-0.098-0.349-0.491-0.691-0.491-0.691s0.968,0.405,1.38,0.92c0.331-0.371,0.755-2.227-0.626-2.227 C28.585,34.508,26.469,35.097,24.002,34.821z"/><path d="M37,14c0-1-3-3-3-3c1-1,1-2,1-2c-3,0-5,1-5,1c-5,0-12,3-12,3c0.216,1.685,3.541,2.976,5.492,2.976 c1.95,0,3.184,1.305,3.184,1.305l-1.75,1.42c0,0-2.576-0.225-6.867-0.225c-4.292,0-6.346,8.217-6.346,14.526 c0,10.638,3.069,13.892,4.204,13.892c1.135,0,1.022-0.776,1.022-0.776s-1.533,0.43-1.533-0.91c0-1.041,0.397-3.082,0.397-3.082 l0.511,0.587c0.927-1.911-0.511-5.298-0.511-5.298C16.844,37.64,18,40.176,18,40.176s0.225-0.776,2.609-0.776 c4.39,0,4.03,2.782,4.03,2.782c0.435-0.208,1.022-0.662,1.022-0.662l0.511,0.53c0,0,1.528,0.17,1.528-2.09 c0-2.098-7.798-2.468-7.798-2.468c0.133-0.675,6.073-5.226,6.073-5.226s-0.326-1.568-0.036-2.834 c0.289-1.266,1.459-2.134,1.459-2.134c-0.374,2.267,1.58,4.04,1.58,4.04l0.338-0.856l2.556,3.726c0,0,0.362-0.494,1.929-0.494 c1.568,0,1.483,1.736,1.483,1.736c1.324-1.521,0.651-3.473,0.651-3.473c-1.013-1.242-3.69,0.169-3.69,0.169l-0.386-0.269 c-0.512-3.217,4.606-14.817,4.923-15.816C37.1,15.061,37,14,37,14z M25.255,13.277c-0.781,0-1.165-0.384-1.165-0.384 c-0.013-0.007,0.569-0.748,1.245-0.828c0.675-0.079,1.708,0.093,1.708,0.093S26.613,13.277,25.255,13.277z"/><path fill="none" stroke="#030000" stroke-linecap="round" stroke-linejoin="round" stroke-miterlimit="10" stroke-width="2" d="M25.004,6.941c0,0,2.978-1.941,2.978-3.906c0,0,9.022,3.965,15.022,9.965c0,0-6.251,14-0.774,14c0.944,0,1.774-1,1.774-1 s-2,9-7,14c0,0-9,3-12,7H25c-3-4-12-7-12-7c-5-5-7-14-7-14s0.83,1,1.774,1C13.251,27,7,13,7,13c6-6,15.022-9.965,15.022-9.965 C22.022,5,25,6.941,25,6.941H25.004z"/></svg>