<svg xmlns="http://www.w3.org/2000/svg"  viewBox="0 0 50 50" width="50px" height="50px"><path fill="#030000" d="M41.943,39.986c0,0,0.774,5.022-2.983,5.022c-6.193,0-8.361-5.661-10.892-10.319l0.247,0.046 c0.15-0.05,6.713,1.232,6.713,1.232c-1.655-15.21-18.755-13.822-18.755-21.436c0-0.675,1.226-1.539,2.758-1.539 c2.919,0,6.908,3.131,6.908,3.131l0.67,2.228l4.173,2.43l1.039-1.172l-1.006,0.151l-1.659-1.693c1.508-1.089,4.24-0.737,4.24-0.737 l-0.067,0.888c0.855-0.453,1.995-1.777,1.995-1.777l-5.383-3.111l-3.045-0.216c0,0-2.628-1.645-3.598-3.127 c0,0-4.121-0.008-5.563,0.072c-1.462,0.081-3.799,5.346-3.718,6.747c0.081,1.401,1.077,3.934,1.266,4.204 c1.698,3.018,15.764,8.704,16.303,11.991c0,0-1.698-0.575-4.824-0.552c-1.761-2.747-3.949-5.441-7.693-5.441 c-1.305,0-3.107-0.022-3.107-0.022s-2.664,2.391-3.239,7.034c0,0,5.642,3.202,11.47,1.282c3.146,4.23,6.387,9.449,7.271,9.697 c0,0,11.537,4,11.537-4C43,41,42.595,40.178,41.943,39.986z M29.96,14.735l1.974,1.219l-0.842,0.44c0,0-1.27-0.44-1.383-0.666 C29.708,15.728,29.419,15.452,29.96,14.735z M15.469,30.016c0,0,5.192-0.249,6.8,2.837C16.228,33.797,15.469,30.016,15.469,30.016z"/><path fill="none" stroke="#030000" stroke-linecap="round" stroke-linejoin="round" stroke-miterlimit="10" stroke-width="2" d="M42.986,12L26.583,2.998L27,6.007l-2,1.987l-2-1.987l0.418-3.017L7,12c0,0,7.5,13,4.026,13c-1.863,0-4-2.017-4-2.017 s0.492,13.288,8.465,16.636l-1.499,1.939c0,0,9.396,2.364,11.001,5.447h0c1.606-3.083,11.001-5.447,11.001-5.447l-1.499-1.939 c7.973-3.348,8.465-16.636,8.465-16.636S40.823,25,38.961,25C35.486,25,42.986,12,42.986,12z"/></svg>